# xmcd
#
# Track frame offsets:
#	150
#	14646
#	27498
#	46889
#	63508
#	93042
#	108755
#	129175
#	141416
#	164772
#	191677
#
# Disc length: 2878 seconds
# Revision: 3
# Processed by: cddbd v1.5.2PL0 Copyright (c) Steve Scherf et al.
# Submitted via: dBpowerAMP V12.0
#
DISCID=950b3c0b
DTITLE=Big Bill Morganfield - Blues With A Mood
DYEAR=2013
DGENRE=Blues
TTITLE0=Look What You Done
TTITLE1=Havin' Fun
TTITLE2=Money's Gettin' Cheaper
TTITLE3=Ooh Wee
TTITLE4=No Butter For My Grits
TTITLE5=Tight Things
TTITLE6=Devil At My Door
TTITLE7=I Feel Alright Again
TTITLE8=Another Lonely Night
TTITLE9=Hot Love
TTITLE10=Son Of The Blues
EXTD=
EXTT0=
EXTT1=
EXTT2=
EXTT3=
EXTT4=
EXTT5=
EXTT6=
EXTT7=
EXTT8=
EXTT9=
EXTT10=
PLAYORDER=
